<svg preserveAspectRatio="none" overflow="visible" style="display: block;" width="19.0163" height="15.3415" viewBox="0 0 19.0163 15.3415" fill="none" xmlns="http://www.w3.org/2000/svg">
<g id="Container">
<path id="Icon" d="M9.50817 15.3415L3.50997 12.1042V7.10418L0 5.17664L9.50817 0L19.0163 5.17664V12.0199H16.9846V6.2935L15.5064 7.10418V12.1042L9.50817 15.3415V15.3415M9.50817 8.02445L14.7808 5.17664L9.50817 2.32883L4.23555 5.17664L9.50817 8.02445V8.02445M9.50817 13.0335L13.4746 10.8895V8.19115L9.50817 10.3533L5.54169 8.19115V10.8895L9.50817 13.0335V13.0335M9.50817 8.02445V8.02445V8.02445V8.02445V8.02445V8.02445M9.50817 10.0643V10.0643V10.0643V10.0643V10.0643V10.0643V10.0643V10.0643V10.0643V10.0643M9.50817 10.0643V10.0643V10.0643V10.0643V10.0643V10.0643V10.0643V10.0643V10.0643V10.0643" fill="#0A2556"/>
</g>
</svg>
